HIERARCHY
ROOT Hips
{
	OFFSET 0.00000 0.00000 0.00000
	CHANNELS 6 Xposition Yposition Zposition Zrotation Yrotation Xrotation 
	JOINT LHipJoint
	{
		OFFSET 0 0 0
		CHANNELS 3 Zrotation Yrotation Xrotation
		JOINT LeftUpLeg
		{
			OFFSET 1.54859 -1.61379 0.86856
			CHANNELS 3 Zrotation Yrotation Xrotation
			JOINT LeftLeg
			{
				OFFSET 2.25087 -6.18423 0.00000
				CHANNELS 3 Zrotation Yrotation Xrotation
				JOINT LeftFoot
				{
					OFFSET 2.40328 -6.60297 0.00000
					CHANNELS 3 Zrotation Yrotation Xrotation
					JOINT LeftToeBase
					{
						OFFSET 0.17435 -0.47901 2.02453
						CHANNELS 3 Zrotation Yrotation Xrotation
						End Site
						{
							OFFSET 0.00000 -0.00000 1.04844
						}
					}
				}
			}
		}
	}
	JOINT RHipJoint
	{
		OFFSET 0 0 0
		CHANNELS 3 Zrotation Yrotation Xrotation
		JOINT RightUpLeg
		{
			OFFSET -1.54669 -1.61379 0.86856
			CHANNELS 3 Zrotation Yrotation Xrotation
			JOINT RightLeg
			{
				OFFSET -2.28132 -6.26789 0.00000
				CHANNELS 3 Zrotation Yrotation Xrotation
				JOINT RightFoot
				{
					OFFSET -2.51636 -6.91365 0.00000
					CHANNELS 3 Zrotation Yrotation Xrotation
					JOINT RightToeBase
					{
						OFFSET -0.15124 -0.41552 2.21090
						CHANNELS 3 Zrotation Yrotation Xrotation
						End Site
						{
							OFFSET -0.00000 -0.00000 1.13399
						}
					}
				}
			}
		}
	}
	JOINT LowerBack
	{
		OFFSET 0 0 0
		CHANNELS 3 Zrotation Yrotation Xrotation
		JOINT Spine
		{
			OFFSET -0.04287 2.26161 -0.25690
			CHANNELS 3 Zrotation Yrotation Xrotation
			JOINT Spine1
			{
				OFFSET 0.02248 2.28395 -0.10140
				CHANNELS 3 Zrotation Yrotation Xrotation
				JOINT Neck
				{
					OFFSET 0 0 0
					CHANNELS 3 Zrotation Yrotation Xrotation
					JOINT Neck1
					{
						OFFSET -0.11644 1.38496 0.11345
						CHANNELS 3 Zrotation Yrotation Xrotation
						JOINT Head
						{
							OFFSET 0.29383 1.36600 0.06642
							CHANNELS 3 Zrotation Yrotation Xrotation
							End Site
							{
								OFFSET 0.11075 1.41395 -0.00294
							}
						}
					}
				}
				JOINT LeftShoulder
				{
					OFFSET 0 0 0
					CHANNELS 3 Zrotation Yrotation Xrotation
					JOINT LeftArm
					{
						OFFSET 3.51628 0.59542 -0.30346
						CHANNELS 3 Zrotation Yrotation Xrotation
						JOINT LeftForeArm
						{
							OFFSET 4.76405 -0.00000 0.00000
							CHANNELS 3 Zrotation Yrotation Xrotation
							JOINT LeftHand
							{
								OFFSET 3.13759 -0.00000 -0.00000
								CHANNELS 3 Zrotation Yrotation Xrotation
								JOINT LeftFingerBase
								{
									OFFSET 0 0 0
									CHANNELS 3 Zrotation Yrotation Xrotation
									JOINT LeftHandIndex1
									{
										OFFSET 0.73226 -0.00000 -0.00000
										CHANNELS 3 Zrotation Yrotation Xrotation
										End Site
										{
											OFFSET 0.59037 -0.00000 -0.00000
										}
									}
								}
								JOINT LThumb
								{
									OFFSET 0 0 0
									CHANNELS 3 Zrotation Yrotation Xrotation
									End Site
									{
										OFFSET 0.59938 -0.00000 0.59938
									}
								}
							}
						}
					}
				}
				JOINT RightShoulder
				{
					OFFSET 0 0 0
					CHANNELS 3 Zrotation Yrotation Xrotation
					JOINT RightArm
					{
						OFFSET -3.30990 0.84213 -0.36430
						CHANNELS 3 Zrotation Yrotation Xrotation
						JOINT RightForeArm
						{
							OFFSET -5.10161 -0.00000 -0.00000
							CHANNELS 3 Zrotation Yrotation Xrotation
							JOINT RightHand
							{
								OFFSET -3.23267 -0.00000 -0.00000
								CHANNELS 3 Zrotation Yrotation Xrotation
								JOINT RightFingerBase
								{
									OFFSET 0 0 0
									CHANNELS 3 Zrotation Yrotation Xrotation
									JOINT RightHandIndex1
									{
										OFFSET -0.70200 -0.00000 -0.00000
										CHANNELS 3 Zrotation Yrotation Xrotation
										End Site
										{
											OFFSET -0.56597 -0.00000 -0.00000
										}
									}
								}
								JOINT RThumb
								{
									OFFSET 0 0 0
									CHANNELS 3 Zrotation Yrotation Xrotation
									End Site
									{
										OFFSET -0.57461 -0.00000 0.57461
									}
								}
							}
						}
					}
				}
			}
		}
	}
}
MOTION
Frames: 9
Frame Time: 0.0526316
0.00 0.00 0.00 0 0 0 0 0 0 -21 0 0 0 0 0 0 0 0 0 0 0 0 0 0 21 0 0 0 0 0 0 0 0 0 0 0 0 0 0 0 0 0 0 0 0 0 0 -16 0 0 21 0 0 11 0 0 0 -8 0 0 0 0 0 0 0 0 0 0 0 0 0 0 0 0 0 0 0 0 8 0 0 0 0 0 0 0 0 0 0 0 0 0 0 0 0 0
0.00 0.00 0.00 -180.9920 40.4806 173.7170 0.0000 0.0000 0.0000 -18.7974 -12.2847 -49.7001 17.9281 19.8968 83.9323 1.2417 -3.8655 -20.1411 0.3665 -3.8889 -10.7643 0.0000 0.0000 0.0000 -2.8837 12.8650 -54.5449 -18.0960 -19.9129 84.4252 -0.2228 -7.3699 -14.4836 -1.4609 7.6390 -21.6229 -14.0177 -3.4405 37.8746 -4.6830 -5.7443 14.7432 3.9389 -1.7878 -0.9546 -12.5553 -6.1817 -8.5860 25.5898 -4.4880 -13.8072 10.2211 -1.6993 -1.3269 0.0000 -0.0000 0.0000 -55.8943 -64.1520 29.5210 19.3733 -29.8799 -5.2155 -0.0000 -0.0000 7.6477 16.8893 27.9765 8.1062 -7.1250 0.0000 -0.0000 -15.3037 58.3557 -5.0760 0.0000 -0.0000 0.0000 89.9993 -2.0560 6.4209 -48.2969 52.2851 -24.8204 0.0000 -0.0000 -19.7994 -46.7021 32.9039 -29.9637 7.1250 -0.0000 -0.0000 -7.7556 13.0073 -9.3778
0.00 0.00 0.00 -181.5930 35.8195 173.7270 0.0000 0.0000 0.0000 -14.9295 -14.9667 -46.1563 18.0317 19.9069 84.2366 1.3294 -8.4141 -20.6368 0.1997 -2.8774 -7.9375 0.0000 0.0000 0.0000 -12.8346 17.8417 -51.0991 -11.8858 -18.3420 65.6264 -0.0394 -2.1863 -5.2037 -2.0853 9.0415 -25.9254 -14.3829 -3.2984 38.1560 -2.7750 -5.5256 14.7856 6.0729 -1.7829 -0.7997 -14.1709 -4.5765 -8.4001 22.1823 -2.3246 -14.3942 9.4524 -0.5292 -2.0818 -0.0000 -0.0000 0.0000 -51.5591 -63.7551 28.7745 25.2987 -36.5077 -8.4670 -0.0000 0.0000 -2.4593 5.8493 34.4309 3.3151 -7.1250 0.0000 -0.0000 -32.1543 61.6162 -13.7856 -0.0000 -0.0000 0.0000 88.0987 -3.7200 7.2418 -51.6976 53.6576 -27.5357 0.0000 -0.0000 -24.3488 -46.1677 33.0404 -29.5930 7.1250 -0.0000 -0.0000 -7.4352 12.9049 -8.9745
0.00 0.00 0.00 -178.6870 26.5232 175.9480 0.0000 0.0000 0.0000 -4.5447 -18.7155 -40.5583 16.9312 19.7727 80.9947 1.2784 -14.0364 -21.1050 1.2595 -7.1142 -20.0542 0.0000 0.0000 0.0000 -19.8582 25.9438 -37.5098 -5.5339 -13.9609 43.0812 -0.2566 1.6605 10.3233 -3.2522 11.0925 -32.5924 -10.6280 -4.5845 36.1012 -0.3538 -5.3546 15.1920 6.7402 -1.6760 -0.1575 -15.3179 -0.5055 -10.3058 17.3324 2.9475 -11.8434 8.0486 2.3070 -2.1226 0.0000 -0.0000 0.0000 -37.2866 -59.5020 22.4866 40.5761 -48.4076 -18.8690 -0.0000 0.0000 -15.6909 -1.9174 37.2665 -1.1613 -7.1250 0.0000 -0.0000 -43.0433 61.8914 -19.6272 0.0000 -0.0000 0.0000 83.8765 -1.1838 11.7649 -54.8935 54.7881 -30.1290 0.0000 -0.0000 -23.7884 -45.7853 33.7305 -29.7143 7.1250 -0.0000 -0.0000 -7.0220 13.4886 -8.5220
0.00 0.00 0.00 -177.0790 18.5401 177.6960 0.0000 0.0000 0.0000 3.1358 -19.8757 -39.9415 15.4657 19.4997 76.6355 0.6362 -19.6383 -18.6892 0.9928 -6.3414 -17.7783 0.0000 0.0000 0.0000 -15.5213 21.7604 -30.0123 -5.2399 -13.6490 41.8493 -0.0087 -1.9297 2.0032 -8.6243 16.5598 -54.7814 -8.6945 -5.2521 33.3050 1.4179 -5.4810 14.6717 7.6012 -1.7959 0.1648 -16.9085 1.6412 -12.8508 14.5745 6.1226 -10.1217 7.4414 4.0542 -1.7921 0.0000 -0.0000 0.0000 -29.6522 -58.3303 23.5401 44.9872 -50.7622 -22.2288 -0.0000 0.0000 -35.9104 114.4306 -65.2106 -116.5821 -7.1250 0.0000 -0.0000 -175.6871 -49.2329 179.5491 0.0000 -0.0000 0.0000 82.1096 -1.7415 14.0162 -59.9818 56.3051 -34.3260 0.0000 -0.0000 -24.6198 -45.8336 33.2275 -29.4294 7.1250 -0.0000 -0.0000 -7.2035 12.9555 -8.6956
0.00 0.00 0.00 -179.2500 5.3120 178.9010 0.0000 0.0000 0.0000 9.2532 -23.1374 -37.8597 10.6787 17.7742 61.7335 -0.1176 -17.6351 -11.2580 0.4388 -4.2505 -11.7825 0.0000 0.0000 0.0000 -8.5087 8.7342 -29.2196 -7.2767 -15.5605 49.9131 -0.8485 -1.7578 -18.1209 -7.5877 15.8075 -51.0636 -9.3854 -4.3291 31.2965 1.5332 -4.8582 12.4228 7.9181 -1.4866 -1.5493 -16.6847 5.4877 -13.2020 6.9761 11.9449 -15.6507 4.7497 7.4734 -4.0223 -0.0000 0.0000 0.0000 -19.5385 -57.6417 23.3734 46.8688 -51.6518 -23.6955 -0.0000 0.0000 -43.8622 90.2251 -61.3685 -90.2565 -7.1250 0.0000 -0.0000 177.1862 -59.8944 -178.9767 -0.0000 0.0000 0.0000 81.4571 -2.1978 16.9246 -62.1340 56.8523 -36.1223 0.0000 -0.0000 -27.6541 -44.7446 34.6982 -29.4317 7.1250 -0.0000 -0.0000 -6.1821 14.0661 -7.5372
0.00 0.00 0.00 -177.3950 -34.8695 177.9500 0.0000 0.0000 0.0000 -7.7597 -11.3856 -39.1059 11.6029 18.2177 64.7243 0.3746 -1.7978 -11.0766 0.0553 -1.5179 -4.1750 0.0000 0.0000 0.0000 21.3764 -17.3409 -38.3331 -11.0474 -17.9582 62.9354 -1.1885 -3.7186 -22.2410 -1.5607 7.8838 -22.3617 -2.3718 1.8686 27.9636 -1.1372 0.1844 8.4798 0.1157 -0.5242 -5.9844 -14.6009 19.5032 -13.6508 -4.3184 26.6888 -14.1911 0.6240 13.7372 -3.9937 0.0000 -0.0000 0.0000 -35.5264 -34.6630 29.1573 36.9069 -46.1268 -16.1729 -0.0000 0.0000 -62.3613 -38.0440 48.1777 -30.2486 -7.1250 0.0000 -0.0000 -87.2375 57.9891 -48.1252 0.0000 -0.0000 0.0000 79.4354 -14.1792 18.9823 -43.4364 49.9790 -21.0343 0.0000 -0.0000 -24.1095 -39.5689 35.5636 -25.6696 7.1250 -0.0000 -0.0000 -3.2517 12.8055 -3.8971
0.00 0.00 0.00 -164.7760 -77.1583 168.7750 0.0000 0.0000 0.0000 -5.6334 -3.5226 -20.8509 17.9720 19.9011 84.0612 -0.0129 6.9166 -9.5497 0.2481 -3.2052 -8.8505 0.0000 0.0000 0.0000 12.4721 -1.1567 -26.2122 -7.2586 -15.5459 49.8458 -0.8714 -2.6213 -18.7669 -6.4332 14.8354 -46.6966 -3.2104 2.9226 21.8095 -1.3736 2.4847 6.1451 -0.2768 1.0030 -5.5367 -14.2737 18.9092 -12.2446 -3.1870 26.1994 -13.1598 0.8580 13.6263 -3.9413 -0.0000 0.0000 0.0000 -47.2570 -4.1178 -10.8988 72.7783 -58.8491 -45.1432 -0.0000 0.0000 -69.4170 -40.2077 48.3315 -32.2700 -7.1250 0.0000 -0.0000 -88.8680 57.4434 -48.9930 -0.0000 0.0000 0.0000 80.9792 -24.1167 14.2304 -41.6756 49.0319 -19.6952 0.0000 -0.0000 -22.6609 -36.0567 33.0933 -21.6788 7.1250 -0.0000 -0.0000 -2.0593 8.8721 -2.3537
0.00 0.00 0.00 -105.9280 -85.1780 111.2850 0.0000 0.0000 0.0000 1.2977 -3.1906 -19.0529 17.6242 19.8641 83.0384 -0.0226 7.3054 -9.8899 0.1417 -2.4261 -6.6848 0.0000 0.0000 0.0000 12.8579 -3.9786 -27.3054 -6.6471 -15.0274 47.5268 -1.3726 1.8714 -21.6190 -6.8503 15.2045 -48.3057 -2.1721 2.3264 21.6781 -1.2980 2.0869 4.8854 -0.7101 0.8830 -6.7948 -12.8189 18.9326 -10.4622 -3.6772 25.9397 -12.6495 0.4416 13.4660 -3.7256 0.0000 -0.0000 0.0000 -48.7739 -3.6418 -22.9112 92.9692 -59.9667 -62.5711 -0.0000 0.0000 -64.1755 -38.0217 47.5374 -29.9771 -7.1250 0.0000 -0.0000 -86.2932 57.7989 -46.7247 0.0000 -0.0000 0.0000 80.4832 -26.5098 13.1600 -43.5795 50.0533 -21.1440 0.0000 -0.0000 -22.6818 -35.8207 32.9072 -21.4113 7.1250 -0.0000 -0.0000 -1.9778 8.5916 -2.2524
